<svg xmlns="http://www.w3.org/2000/svg" xmlns:xlink="http://www.w3.org/1999/xlink" width="360" height="292" viewBox="0 0 360 292"><defs><style>.a{fill:#0056a6;}.b,.c{fill:#fff;}.b{font-size:20px;font-family:SegoeUI-Bold, Segoe UI;font-weight:700;}.d{filter:url(#a);}</style><filter id="a" x="0" y="0" width="360" height="292" filterUnits="userSpaceOnUse"><feOffset dx="20" dy="20" input="SourceAlpha"/><feGaussianBlur stdDeviation="40" result="b"/><feFlood flood-opacity="0.161"/><feComposite operator="in" in2="b"/><feComposite in="SourceGraphic"/></filter></defs><g transform="translate(-1718 -48)"><g class="d" transform="matrix(1, 0, 0, 1, 1718, 48)"><rect class="a" width="120" height="52" transform="translate(100 100)"/></g><g transform="translate(194 -54)"><text class="b" transform="translate(1698 233.586)"><tspan x="-52.617" y="0">Login</tspan></text><g transform="translate(1709.297 216.513)"><path class="c" d="M103.912,0V1.076H99.7v21.47h1.556V2.632h2.653V24.4l10.313-1.854V1.858Zm1.9,13.036a.741.741,0,0,1-.628-.817.65.65,0,1,1,1.255,0A.741.741,0,0,1,105.809,13.036Z" transform="translate(-99.704)"/></g></g></g></svg>