<svg xmlns="http://www.w3.org/2000/svg" xmlns:xlink="http://www.w3.org/1999/xlink" width="85.951" height="105.485" viewBox="0 0 85.951 105.485"><defs><style>.a{fill:url(#a);}</style><linearGradient id="a" x1="0.5" x2="0.5" y2="1" gradientUnits="objectBoundingBox"><stop offset="0" stop-color="#0033a1"/><stop offset="1" stop-color="#0a2240"/></linearGradient></defs><path class="a" d="M79.23,39.289V28.325C79.23,12.707,65.209,0,47.976,0S16.721,12.707,16.721,28.325a1.953,1.953,0,0,0,3.907,0C20.627,14.86,32.9,3.907,47.976,3.907S75.324,14.86,75.324,28.325V39.069h-56.2A14.138,14.138,0,0,0,5,53.19V91.364a14.138,14.138,0,0,0,14.121,14.121H76.83A14.138,14.138,0,0,0,90.951,91.364V53.19A14.133,14.133,0,0,0,79.23,39.289ZM55.789,74.23a7.814,7.814,0,0,1-15.627,0V62.51a7.814,7.814,0,1,1,15.627,0Z" transform="translate(-5 0)"/></svg>